{"title":"The Angrez 2006 Hindi XViD.DvDRip ESub@Mastitorrents","uid":5857421,"size":1466719197,"categoryP":"video","categoryS":"movies","magnet":"?xt=urn:btih:242cf65d7bc1bc393b32f340737a586fe8387228&amp;dn=The+Angrez+2006+Hindi+XViD.DvDRip+ESub%40Mastitorrents&amp;tr=udp%3A%2F%2Ftracker.openbittorrent.com%3A80&amp;tr=udp%3A%2F%2Fopen.demonii.com%3A1337&amp;tr=udp%3A%2F%2Ftracker.coppersurfer.tk%3A6969&amp;tr=udp%3A%2F%2Fexodus.desync.com%3A6969","seeders":8,"leechers":3,"uploader":"amanrulz","files":4,"time":1285862408,"description":"mastitorrents.com\n &lt;a href=&quot;\nhttp://mastitorrents.com/forums/index.php&quot; rel=&quot;nofollow&quot; target=&quot;_NEW&quot;&gt;\nhttp://mastitorrents.com/forums/index.php&lt;/a&gt;\n\nThe Angrez 2006.XViD.DvDRip.CD1\n\nFormat : AVI\nFormat/Info : Audio Video Interleave\nFile size : 701 MiB\nDuration : 56mn 57s\nOverall bit rate : 1 722 Kbps\nWriting application : VirtualDubMod 1.5.10.2 (build 2540/release)\nWriting library : VirtualDubMod build 2540/release\n\nVideo\nID : 0\nFormat : MPEG-4 Visual\nFormat profile : Advanced Simple@L5\nFormat settings, BVOP : Yes\nFormat settings, QPel : Yes\nFormat settings, GMC : No warppoints\nFormat settings, Matrix : Custom\nCodec ID : XVID\nCodec ID/Hint : XviD\nDuration : 56mn 57s\nBit rate : 1 582 Kbps\nWidth : 640 pixels\nHeight : 272 pixels\nDisplay aspect ratio : 2.35:1\nFrame rate : 29.970 fps\nColor space : YUV\nChroma subsampling : 4:2:0\nBit depth : 8 bits\nScan type : Progressive\nBits/(Pixel*Frame) : 0.303\nStream size : 645 MiB (92%)\nWriting library : XviD 1.2.0SMP (UTC 2006-01-08)\n\nAudio\nID : 1\nFormat : MPEG Audio\nFormat version : Version 1\nFormat profile : Layer 3\nMode : Joint stereo\nMode extension : MS Stereo\nCodec ID : 55\nCodec ID/Hint : MP3\nDuration : 56mn 57s\nBit rate mode : Constant\nBit rate : 128 Kbps\nChannel(s) : 2 channels\nSampling rate : 48.0 KHz\nStream size : 52.2 MiB (7%)\nAlignment : Aligned on interleaves\nInterleave, duration : 33 ms (1.00 video frame)\nInterleave, preload duration : 504 ms\nWriting library : LAME3.98a\n\n\n\nThe Angrez 2006.XViD.DvDRip.CD2\n\nFormat : AVI\nFormat/Info : Audio Video Interleave\nFile size : 697 MiB\nDuration : 53mn 47s\nOverall bit rate : 1 812 Kbps\nWriting application : VirtualDubMod 1.5.10.2 (build 2540/release)\nWriting library : VirtualDubMod build 2540/release\n\nVideo\nID : 0\nFormat : MPEG-4 Visual\nFormat profile : Advanced Simple@L5\nFormat settings, BVOP : Yes\nFormat settings, QPel : Yes\nFormat settings, GMC : No warppoints\nFormat settings, Matrix : Custom\nCodec ID : XVID\nCodec ID/Hint : XviD\nDuration : 53mn 47s\nBit rate : 1 672 Kbps\nWidth : 640 pixels\nHeight : 272 pixels\nDisplay aspect ratio : 2.35:1\nFrame rate : 29.970 fps\nColor space : YUV\nChroma subsampling : 4:2:0\nBit depth : 8 bits\nScan type : Progressive\nBits/(Pixel*Frame) : 0.321\nStream size : 643 MiB (92%)\nWriting library : XviD 1.2.0SMP (UTC 2006-01-08)\n\nAudio\nID : 1\nFormat : MPEG Audio\nFormat version : Version 1\nFormat profile : Layer 3\nMode : Joint stereo\nMode extension : MS Stereo\nCodec ID : 55\nCodec ID/Hint : MP3\nDuration : 53mn 47s\nBit rate mode : Constant\nBit rate : 128 Kbps\nChannel(s) : 2 channels\nSampling rate : 48.0 KHz\nStream size : 49.2 MiB (7%)\nAlignment : Aligned on interleaves\nInterleave, duration : 33 ms (1.00 video frame)\nInterleave, preload duration : 504 ms\nWriting library : LAME3.98 (alpha)","torrent":{"xt":"urn:btih:242cf65d7bc1bc393b32f340737a586fe8387228","amp;dn":"The+Angrez+2006+Hindi+XViD.DvDRip+ESub%40Mastitorrents","amp;tr":["udp%3A%2F%2Ftracker.openbittorrent.com%3A80","udp%3A%2F%2Fopen.demonii.com%3A1337","udp%3A%2F%2Ftracker.coppersurfer.tk%3A6969","udp%3A%2F%2Fexodus.desync.com%3A6969"],"infoHash":"242cf65d7bc1bc393b32f340737a586fe8387228","infoHashBuffer":{"type":"Buffer","data":[36,44,246,93,123,193,188,57,59,50,243,64,115,122,88,111,232,56,114,40]},"announce":[],"urlList":[]}}